<?xml version="1.0" encoding="UTF-8"?><svg xmlns="http://www.w3.org/2000/svg" viewBox="0 0 1233.5 322.8"><defs><style>.d{fill:#37519b;}.e{fill:#f48e31;}</style></defs><g id="a"/><g id="b"><g id="c"><g><g><path class="d" d="M354.14,144.84l27.75,94.95,28.24-94.95h26.29l-40.9,128.78h-28.24l-40.9-128.78h27.75Z"/><path class="d" d="M470.51,216.9c1.95,19.23,10.22,33.84,35.3,33.84,10.47,0,23.13-2.68,30.43-7.06l9.01,23.61c-9.74,4.87-25.56,8.76-41.39,8.76-46.26,0-59.4-32.62-59.4-67.19s12.42-65.98,54.53-65.98c38.71,0,51.61,25.81,51.61,59.4,0,4.87-.24,9.5-.73,14.61h-79.36Zm.24-18.99h55.51c-1.7-22.89-10.71-31.89-26.78-31.89-18.26,0-26.78,11.69-28.73,31.89Z"/><path class="d" d="M647.5,172.84c-9.01-3.65-21.67-6.09-32.13-6.09-13.39,0-19.48,4.14-19.48,11.93,0,5.36,3.41,8.76,9.49,12.17,12.9,7.3,26.78,11.44,36.27,18.02,10.96,7.55,15.09,17.53,15.09,29.21,0,23.13-16.55,38.47-51.12,38.47-15.34,0-30.67-2.92-40.66-6.09l2.92-26.29c9.74,4.38,24.59,7.79,37.98,7.79,16.8,0,24.1-5.11,24.1-13.63,0-5.6-3.65-9.98-10.71-14.12-14.12-8.03-27.02-11.44-37.49-18.5-8.76-6.57-14.36-13.63-14.36-26.54,0-23.13,17.53-36.03,46.99-36.03,13.39,0,27.75,2.68,35.79,5.84l-2.68,23.86Z"/><path class="d" d="M685.73,144.84v-32.38l28.24-7.55v39.93h32.87v23.61h-32.87v64.76c0,12.9,3.17,17.28,13.15,17.28,5.84,0,13.88-1.46,19.48-4.38l5.11,24.34c-7.55,3.41-20.21,5.6-30.92,5.6-24.59,0-35.06-11.69-35.06-40.41v-67.19h-19.96v-23.61h19.96Z"/><path class="d" d="M799.91,105.89c0,10.22-7.06,17.77-16.8,17.77s-16.8-7.55-16.8-17.77c0-9.5,7.06-17.29,16.8-17.29s16.8,7.79,16.8,17.29Zm-2.68,38.95v128.78h-28.48V144.84h28.48Z"/><path class="d" d="M834.72,144.84v-32.38l28.24-7.55v39.93h32.87v23.61h-32.87v64.76c0,12.9,3.17,17.28,13.15,17.28,5.84,0,13.88-1.46,19.48-4.38l5.11,24.34c-7.55,3.41-20.21,5.6-30.92,5.6-24.59,0-35.06-11.69-35.06-40.41v-67.19h-19.96v-23.61h19.96Z"/><path class="d" d="M995.4,172.84c-9.01-3.65-21.67-6.09-32.13-6.09-13.39,0-19.48,4.14-19.48,11.93,0,5.36,3.41,8.76,9.49,12.17,12.9,7.3,26.78,11.44,36.27,18.02,10.96,7.55,15.09,17.53,15.09,29.21,0,23.13-16.55,38.47-51.12,38.47-15.34,0-30.67-2.92-40.66-6.09l2.92-26.29c9.74,4.38,24.59,7.79,37.98,7.79,16.8,0,24.1-5.11,24.1-13.63,0-5.6-3.65-9.98-10.71-14.12-14.12-8.03-27.02-11.44-37.49-18.5-8.76-6.57-14.36-13.63-14.36-26.54,0-23.13,17.53-36.03,46.99-36.03,13.39,0,27.75,2.68,35.79,5.84l-2.68,23.86Z"/><path class="d" d="M1057.96,105.89c0,10.22-7.06,17.77-16.8,17.77s-16.8-7.55-16.8-17.77c0-9.5,7.06-17.29,16.8-17.29s16.8,7.79,16.8,17.29Zm-2.68,38.95v128.78h-28.48V144.84h28.48Z"/><path class="d" d="M1101.54,144.84l27.27,96.4,28.73-96.4h26.29l-44.55,144.85c-6.09,21.18-19.48,33.11-39.44,33.11-9.25,0-20.94-2.68-26.78-5.6l4.87-25.32c5.6,2.44,11.93,4.14,20.21,4.14,10.22,0,15.09-2.68,18.99-15.58l1.7-5.6h-5.11l-39.93-130h27.75Z"/><path class="d" d="M1233.5,105.89c0,10.22-7.06,17.77-16.8,17.77s-16.8-7.55-16.8-17.77c0-9.5,7.06-17.29,16.8-17.29s16.8,7.79,16.8,17.29Zm-2.68,38.95v128.78h-28.48V144.84h28.48Z"/></g><g><polygon class="d" points="361.25 0 322.44 11.61 334.06 20.52 279.14 92.11 264.86 81.15 188.51 180.68 149.86 151.04 97.54 220.89 53.11 186.81 0 256.05 11.67 265 55.2 208.26 99.33 242.11 152.77 172.43 192.31 202.76 268.76 103.1 285.02 115.58 349.09 32.05 360.1 40.49 361.25 0"/><g><polygon class="e" points="95.8 206.56 110.01 187.59 110.01 135.5 72.17 135.5 72.17 188.43 95.8 206.56"/><path class="e" d="M107.27,247.57c-1.93,2.52-4.84,3.84-7.79,3.84-2.08,0-4.18-.66-5.96-2.03l-21.35-16.37v40.84h37.84v-29.85l-2.74,3.57Z"/></g><g><polygon class="e" points="186.95 166.2 220.15 122.92 197.09 87.98 167.33 87.98 167.33 151.15 186.95 166.2"/><path class="e" d="M271.08,72.63l6.5,4.98,25.96-33.84v-8.68h-35.06v36.11c.91,.33,1.79,.8,2.6,1.43Z"/><path class="e" d="M293.06,120.82c-1.58,2.06-3.92,3.41-6.5,3.76-.43,.06-.86,.08-1.28,.08-2.15,0-4.25-.71-5.97-2.03l-8.48-6.51-2.34,3.06v77.01l-27.31-41.4-23.83,31.06,60.47,87.78h25.73V107.15l-10.48,13.67Z"/><path class="e" d="M200.35,208c-1.93,2.52-4.84,3.84-7.79,3.84-2.08,0-4.18-.66-5.96-2.03l-19.26-14.78v78.59h35.06v-68.29l-2.04,2.67Z"/></g></g></g></g></g></svg>